<svg width="20" height="16" viewBox="0 0 20 16" fill="none" xmlns="http://www.w3.org/2000/svg">
<g clip-path="url(#clip0)">
<path d="M-10 0H30V16H-10V0Z" fill="#000066"/>
<path d="M-10 0V1.7888L25.528 16H30V14.2112L-5.528 0.0032H-10V0ZM30 0V1.7888L-5.528 16H-10V14.2112L25.528 0H30Z" fill="white"/>
<path d="M6.668 0V16H13.332V0H6.668ZM-10 5.3344V10.6656H30V5.3344H-10Z" fill="white"/>
<path d="M-10 6.4V9.6H30V6.4H-10ZM8 0V16H12V0H8ZM-10 16L3.332 10.6656H6.32L-7.02 16H-10ZM-10 0L3.332 5.3344H0.352L-10 1.1936V0ZM13.684 5.3344L27.02 0H30L16.668 5.3344H13.68H13.684ZM30.004 16L16.664 10.6656H19.644L30 14.8064V16H30.004Z" fill="#CC0000"/>
</g>
<defs>
<clipPath id="clip0">
<rect width="20" height="16" fill="white"/>
</clipPath>
</defs>
</svg>
