<svg width="129" height="40" viewBox="0 0 129 40" fill="none" xmlns="http://www.w3.org/2000/svg">
<path d="M65.547 30.6919V18.8291H69.7048V15.409H65.547V14.577C65.547 12.9748 66.2606 12.3894 67.8121 12.3894C68.4326 12.3894 69.1463 12.451 69.7048 12.5742V9.21569C68.8981 9.06162 67.8121 9 66.9122 9C63.375 9 61.3582 10.6639 61.3582 14.1765V15.409H59V18.8291H61.3582V30.6919H65.547ZM76.6551 30.6919V9.30812H72.4663V30.6919H76.6551ZM86.8531 31C90.8248 31 93.8966 29.1513 94.5792 25.7619H90.2352C89.8629 27.1176 88.4976 27.9188 86.8531 27.9188C84.5881 27.9188 83.1608 26.1625 83.0677 24.2829H94.7964V22.958C94.7964 18.028 91.8487 15.1008 86.8842 15.1008C81.9507 15.1008 78.8168 18.2745 78.8168 23.0504C78.8168 28.1653 82.2609 31 86.8531 31ZM90.5455 21.4482H83.0987C83.3469 19.6303 84.8673 18.0588 86.9772 18.0588C88.901 18.0588 90.4524 19.4762 90.5455 21.4482ZM104.219 31C108.19 31 111.262 29.1513 111.945 25.7619H107.601C107.228 27.1176 105.863 27.9188 104.219 27.9188C101.954 27.9188 100.526 26.1625 100.433 24.2829H112.162V22.958C112.162 18.028 109.214 15.1008 104.25 15.1008C99.3162 15.1008 96.1823 18.2745 96.1823 23.0504C96.1823 28.1653 99.6265 31 104.219 31ZM107.911 21.4482H100.464C100.712 19.6303 102.233 18.0588 104.343 18.0588C106.267 18.0588 107.818 19.4762 107.911 21.4482ZM117.085 30.6919L120.684 25.7927L124.191 30.6919H129L123.229 22.9888L128.938 15.409H124.253L120.715 20.2773L117.209 15.409H112.4L118.14 23.0196L112.4 30.6919H117.085Z" fill="#FFF9EE"/>
<path fill-rule="evenodd" clip-rule="evenodd" d="M37.5 0C38.8807 0 40 1.11929 40 2.5V37.5C40 38.8807 38.8807 40 37.5 40H2.5C1.11929 40 0 38.8807 0 37.5V2.5C0 1.11929 1.11929 0 2.5 0H37.5ZM32.5 5H7.5C6.11929 5 5 6.11929 5 7.5V32.5C5 33.8807 6.11929 35 7.5 35H12.5C13.8807 35 15 33.8807 15 32.5V17.5C15 16.1192 16.1192 15 17.5 15H32.5C33.8807 15 35 13.8807 35 12.5V7.5C35 6.11929 33.8807 5 32.5 5ZM26.875 18.75C22.3878 18.75 18.75 22.3876 18.75 26.875C18.75 31.3622 22.3878 35 26.875 35C31.3622 35 35 31.3622 35 26.875C35 22.3876 31.3622 18.75 26.875 18.75Z" fill="#FFF9EE"/>
</svg>
