<svg width="40" height="40" viewBox="0 0 40 40" fill="none" xmlns="http://www.w3.org/2000/svg">
<path fill-rule="evenodd" clip-rule="evenodd" d="M37.5 0C38.8807 0 40 1.11929 40 2.5V37.5C40 38.8807 38.8807 40 37.5 40H2.5C1.11929 40 0 38.8807 0 37.5V2.5C0 1.11929 1.11929 0 2.5 0H37.5ZM32.5 5H7.5C6.11929 5 5 6.11929 5 7.5V32.5C5 33.8807 6.11929 35 7.5 35H12.5C13.8807 35 15 33.8807 15 32.5V17.5C15 16.1192 16.1192 15 17.5 15H32.5C33.8807 15 35 13.8807 35 12.5V7.5C35 6.11929 33.8807 5 32.5 5ZM26.875 18.75C22.3878 18.75 18.75 22.3876 18.75 26.875C18.75 31.3622 22.3878 35 26.875 35C31.3622 35 35 31.3622 35 26.875C35 22.3876 31.3622 18.75 26.875 18.75Z" fill="#FFF9EE"/>
</svg>
