<svg width="70" height="22" viewBox="0 0 70 22" fill="none" xmlns="http://www.w3.org/2000/svg">
<path d="M6.54699 21.6919V9.82913H10.7048V6.40896H6.54699V5.57703C6.54699 3.97479 7.26064 3.38936 8.81206 3.38936C9.43262 3.38936 10.1463 3.45098 10.7048 3.57423V0.215686C9.89805 0.0616242 8.81205 0 7.91223 0C4.375 0 2.35815 1.66387 2.35815 5.17647V6.40896H0V9.82913H2.35815V21.6919H6.54699ZM17.6551 21.6919V0.308124H13.4663V21.6919H17.6551ZM27.8531 22C31.8248 22 34.8966 20.1513 35.5792 16.7619H31.2352C30.8629 18.1176 29.4976 18.9188 27.8531 18.9188C25.5881 18.9188 24.1608 17.1625 24.0677 15.2829H35.7964V13.958C35.7964 9.02801 32.8487 6.10084 27.8842 6.10084C22.9507 6.10084 19.8168 9.27451 19.8168 14.0504C19.8168 19.1653 23.2609 22 27.8531 22ZM31.5455 12.4482H24.0987C24.3469 10.6303 25.8673 9.05882 27.9772 9.05882C29.901 9.05882 31.4524 10.4762 31.5455 12.4482ZM45.2187 22C49.1903 22 52.2621 20.1513 52.9447 16.7619H48.6008C48.2284 18.1176 46.8632 18.9188 45.2187 18.9188C42.9536 18.9188 41.5263 17.1625 41.4332 15.2829H53.1619V13.958C53.1619 9.02801 50.2142 6.10084 45.2497 6.10084C40.3162 6.10084 37.1823 9.27451 37.1823 14.0504C37.1823 19.1653 40.6265 22 45.2187 22ZM48.911 12.4482H41.4642C41.7125 10.6303 43.2329 9.05882 45.3428 9.05882C47.2665 9.05882 48.818 10.4762 48.911 12.4482ZM58.0851 21.6919L61.6844 16.7927L65.1906 21.6919H70L64.2287 13.9888L69.9379 6.40896H65.2527L61.7154 11.2773L58.2092 6.40896H53.3998L59.1401 14.0196L53.3998 21.6919H58.0851Z" fill="#FFF9EE"/>
</svg>
